<svg id="Layer_1" data-name="Layer 1" xmlns="http://www.w3.org/2000/svg" viewBox="0 0 550.02 79.86"><defs><style>.cls-1{fill:#25396f;}</style></defs><path class="cls-1" d="M500.24,57.49a3,3,0,0,1,.78-2.1,3.12,3.12,0,0,1,4.26,0,3.22,3.22,0,0,1,0,4.2,3.12,3.12,0,0,1-4.26,0A3,3,0,0,1,500.24,57.49Z"/><path class="cls-1" d="M508.16,41.29a2.63,2.63,0,0,1,.76-1.92,3,3,0,0,1,4.05,0,2.78,2.78,0,0,1,0,3.84,3,3,0,0,1-4.05,0A2.63,2.63,0,0,1,508.16,41.29Zm5.34,18.6-1,.16a8.05,8.05,0,0,1-1.3.11,7.12,7.12,0,0,1-1.19-.09,2,2,0,0,1-.88-.36,1.76,1.76,0,0,1-.56-.74,3.16,3.16,0,0,1-.19-1.21V45.55l1-.17a8.17,8.17,0,0,1,1.31-.1,7,7,0,0,1,1.18.09,2,2,0,0,1,.89.36,1.71,1.71,0,0,1,.55.73,3.2,3.2,0,0,1,.2,1.22Z"/><path class="cls-1" d="M516.11,52.63a9,9,0,0,1,.6-3.44,6.53,6.53,0,0,1,1.66-2.41,6.85,6.85,0,0,1,2.49-1.43,9.89,9.89,0,0,1,3.08-.46,6.45,6.45,0,0,1,1.17.1,4.64,4.64,0,0,1,.93.26V40.39a7.92,7.92,0,0,1,1-.2,8.58,8.58,0,0,1,1.35-.1,7,7,0,0,1,1.18.09,2,2,0,0,1,.89.36,1.61,1.61,0,0,1,.54.73,3.45,3.45,0,0,1,.18,1.22V56.71A2.56,2.56,0,0,1,529.82,59a9.15,9.15,0,0,1-2.25,1,11.66,11.66,0,0,1-6.68-.1,7.1,7.1,0,0,1-2.61-1.56,6.73,6.73,0,0,1-1.62-2.45A8.8,8.8,0,0,1,516.11,52.63Zm8.52-3.75a3.24,3.24,0,0,0-2.49.93,4,4,0,0,0-.87,2.82,4.2,4.2,0,0,0,.81,2.8,2.92,2.92,0,0,0,2.34,1,2.7,2.7,0,0,0,1-.17,2.25,2.25,0,0,0,.68-.37v-6.6A2.75,2.75,0,0,0,524.63,48.88Z"/><path class="cls-1" d="M52.33,48.9A6.94,6.94,0,0,1,50,50.14a11.07,11.07,0,0,1-3.37.46A11.88,11.88,0,0,1,42.35,50a3.38,3.38,0,0,1-2.16-2.2q-2-6.24-3.27-10.12t-2-6.78h-.35c-.14,2.8-.25,5.34-.32,7.64s-.12,4.53-.14,6.71-.07,4.38-.14,6.6-.18,4.69-.32,7.38a12.8,12.8,0,0,1-2.42.61,18.73,18.73,0,0,1-3,.25,9.89,9.89,0,0,1-4.86-1,3.8,3.8,0,0,1-1.74-3.62l2.06-36.21a6.82,6.82,0,0,1,2.48-2,11.26,11.26,0,0,1,5.4-1.06,12.32,12.32,0,0,1,5.89,1.17,6.91,6.91,0,0,1,3.12,3.8C41,22.27,41.5,23.58,42,25s1,3,1.49,4.55,1,3.11,1.46,4.65.89,2.92,1.27,4.15h.36q1.7-6,3.41-11.54t3.12-9.33a11.31,11.31,0,0,1,2.73-1,16.5,16.5,0,0,1,3.73-.39,13.42,13.42,0,0,1,5.68,1,4.08,4.08,0,0,1,2.56,2.94c.19.95.39,2.41.6,4.37s.44,4.18.68,6.64.47,5.06.71,7.81.46,5.38.67,7.91.39,4.86.53,7,.24,3.73.29,4.87a9.77,9.77,0,0,1-2.52,1,14.88,14.88,0,0,1-3.38.32,10,10,0,0,1-4.54-.93c-1.23-.61-1.89-1.82-2-3.62q-.42-7.74-.53-13.91T58,31.22h-.36c-.47,1.85-1.16,4.17-2,7S53.61,44.54,52.33,48.9Z"/><path class="cls-1" d="M82.58,50.67c-.53-1.18-1.08-2.51-1.67-4s-1.21-3.15-1.85-5-1.3-4.06-2-6.5-1.41-5.24-2.16-8.41A8.52,8.52,0,0,1,77.57,25a8.81,8.81,0,0,1,3.66-.75,7.61,7.61,0,0,1,4.11,1,6.33,6.33,0,0,1,2.42,3.87l5.61,19.53h.28q.85-2.41,1.67-5.26c.54-1.89,1.08-3.84,1.6-5.86s1-4,1.45-6,.84-4,1.17-5.93a11.86,11.86,0,0,1,5.61-1.35,7.4,7.4,0,0,1,4.12,1.07A4.06,4.06,0,0,1,110.9,29a23.34,23.34,0,0,1-.49,4.44c-.33,1.68-.77,3.46-1.32,5.36s-1.18,3.84-1.91,5.85-1.51,4-2.31,5.93-1.63,3.78-2.49,5.5-1.68,3.28-2.48,4.66a52.38,52.38,0,0,1-3.69,5.68,20.69,20.69,0,0,1-3.27,3.44,9.28,9.28,0,0,1-3.12,1.7,11.39,11.39,0,0,1-3.27.46,6.69,6.69,0,0,1-4.83-1.77,7.47,7.47,0,0,1-2.2-4.62,59.17,59.17,0,0,0,4.55-3.94,48.17,48.17,0,0,0,4.11-4.43,6.9,6.9,0,0,1-2.59-1.67A16.36,16.36,0,0,1,82.58,50.67Z"/><path class="cls-1" d="M129.44,42.37q-3.14-1.07-5.68-2.17a17.3,17.3,0,0,1-4.41-2.66,10.89,10.89,0,0,1-2.87-3.73,12.2,12.2,0,0,1-1-5.29,11.61,11.61,0,0,1,4.65-9.65q4.65-3.63,13-3.63a36,36,0,0,1,5.68.43A16.94,16.94,0,0,1,143.32,17a7.89,7.89,0,0,1,2.94,2.28,5.15,5.15,0,0,1,1.07,3.23,5.76,5.76,0,0,1-.85,3.16,9,9,0,0,1-2.06,2.23,16.41,16.41,0,0,0-4.19-1.74,21.29,21.29,0,0,0-5.75-.74,9.39,9.39,0,0,0-4.69.89,2.58,2.58,0,0,0-1.49,2.23,2.08,2.08,0,0,0,.92,1.74A9.7,9.7,0,0,0,132,31.5l3.76,1.21A27.25,27.25,0,0,1,146,38.14a11.62,11.62,0,0,1,3.59,9,11.83,11.83,0,0,1-4.76,9.77q-4.76,3.72-14,3.72a32.24,32.24,0,0,1-6.08-.53,18.73,18.73,0,0,1-4.89-1.56A9.05,9.05,0,0,1,116.62,56a5.6,5.6,0,0,1-1.17-3.51,5.32,5.32,0,0,1,1.21-3.52,9,9,0,0,1,2.62-2.23,19.51,19.51,0,0,0,4.87,2.7,17.06,17.06,0,0,0,6.28,1.13c2.32,0,3.95-.35,4.9-1.06A3.09,3.09,0,0,0,136.75,47a2.42,2.42,0,0,0-1.14-2.16,14.45,14.45,0,0,0-3.19-1.46Z"/><path class="cls-1" d="M155.21,25.47a16.22,16.22,0,0,1,2.24-.43,22.93,22.93,0,0,1,3.15-.21,17,17,0,0,1,2.81.21,4.76,4.76,0,0,1,2.09.85,4.16,4.16,0,0,1,1.32,1.74,7.75,7.75,0,0,1,.46,2.88V45.77c0,1.95.47,3.33,1.42,4.16a6.06,6.06,0,0,0,4.12,1.24,10.31,10.31,0,0,0,2.66-.28,9.42,9.42,0,0,0,1.6-.57V25.47a16,16,0,0,1,2.23-.43,23.19,23.19,0,0,1,3.16-.21,17,17,0,0,1,2.81.21,4.86,4.86,0,0,1,2.09.85,4.06,4.06,0,0,1,1.31,1.74,7.53,7.53,0,0,1,.47,2.88V52.09a5.81,5.81,0,0,1-3,5.33,19.66,19.66,0,0,1-5.92,2.38,32.76,32.76,0,0,1-7.49.81,27.57,27.57,0,0,1-7.07-.85,15.7,15.7,0,0,1-5.57-2.63,11.69,11.69,0,0,1-3.62-4.57,16.17,16.17,0,0,1-1.28-6.79Z"/><path class="cls-1" d="M213.36,23.91a24.47,24.47,0,0,1,7.34,1,19.17,19.17,0,0,1,5.58,2.66,8.65,8.65,0,0,1,2.23,2.2,5.42,5.42,0,0,1,.82,3.12V57.77a13.89,13.89,0,0,1-1.42,6.5A13.07,13.07,0,0,1,224,68.81a16.47,16.47,0,0,1-5.75,2.67,28.57,28.57,0,0,1-7.06.85q-6.47,0-10.16-1.74a6.23,6.23,0,0,1-3-8.52,5.58,5.58,0,0,1,1.52-1.88,24.13,24.13,0,0,0,4.65,1.91,18.54,18.54,0,0,0,5.36.79,12.5,12.5,0,0,0,6.11-1.28A4.38,4.38,0,0,0,218,57.49V56.35a17.5,17.5,0,0,1-7.1,1.28,19.05,19.05,0,0,1-6.07-1,13.52,13.52,0,0,1-5-3,14.74,14.74,0,0,1-3.48-5.22A19.82,19.82,0,0,1,195,40.88a18.88,18.88,0,0,1,1.38-7.53,14.27,14.27,0,0,1,3.84-5.29A15.84,15.84,0,0,1,206,24.94,24.92,24.92,0,0,1,213.36,23.91Zm4.4,10.29a7.15,7.15,0,0,0-1.46-.57,8.49,8.49,0,0,0-2.38-.28,6.61,6.61,0,0,0-5.21,1.95A8.11,8.11,0,0,0,207,40.88c0,2.74.58,4.72,1.74,5.92a5.86,5.86,0,0,0,4.43,1.81,7.32,7.32,0,0,0,4.62-1.34Z"/><path class="cls-1" d="M251,23.91a29.21,29.21,0,0,1,7,.78,15.55,15.55,0,0,1,5.39,2.38,10.68,10.68,0,0,1,3.45,4A13.07,13.07,0,0,1,268,36.9V52.8a4.42,4.42,0,0,1-1,3,10.28,10.28,0,0,1-2.45,2q-4.62,2.77-13,2.77a29.29,29.29,0,0,1-6.78-.71,15.92,15.92,0,0,1-5.18-2.13,9.73,9.73,0,0,1-3.34-3.62A10.7,10.7,0,0,1,235.08,49c0-3.27,1-5.77,2.91-7.53s4.95-2.84,9-3.26l9.3-1v-.49a3,3,0,0,0-1.81-2.95,12.23,12.23,0,0,0-5.22-.89,24,24,0,0,0-5.25.57,28,28,0,0,0-4.62,1.42A4.91,4.91,0,0,1,237.85,33a6.14,6.14,0,0,1-.64-2.73,4.57,4.57,0,0,1,.89-2.95,6.88,6.88,0,0,1,2.73-1.88,21.56,21.56,0,0,1,4.87-1.14A43.44,43.44,0,0,1,251,23.91Zm.56,27.9a15.61,15.61,0,0,0,2.67-.25,6.4,6.4,0,0,0,2.16-.67V45.21l-5.11.42a8,8,0,0,0-3.27.85,2.3,2.3,0,0,0-1.27,2.13,2.81,2.81,0,0,0,1.1,2.31A6,6,0,0,0,251.55,51.81Z"/><path class="cls-1" d="M287.48,59.41a16.56,16.56,0,0,1-2.24.42,23.17,23.17,0,0,1-3.16.22,16.84,16.84,0,0,1-2.8-.22,4.73,4.73,0,0,1-2.1-.85,4.16,4.16,0,0,1-1.31-1.74,7.46,7.46,0,0,1-.46-2.87V33.07a6.1,6.1,0,0,1,.6-2.81,6.46,6.46,0,0,1,1.74-2.09,12.42,12.42,0,0,1,2.81-1.67,28.91,28.91,0,0,1,3.58-1.32,31.18,31.18,0,0,1,4-.88,25.9,25.9,0,0,1,4.12-.32,9.7,9.7,0,0,1,5.39,1.31,4.77,4.77,0,0,1,2,4.3,6.81,6.81,0,0,1-.28,1.95,9.17,9.17,0,0,1-.71,1.74c-1,0-2,0-3.06.14s-2.06.24-3.05.43-1.93.39-2.8.6a11.48,11.48,0,0,0-2.24.75Z"/><path class="cls-1" d="M344.49,52.45a5.51,5.51,0,0,1-.78,3.26,8.09,8.09,0,0,1-2.48,2.06,15.29,15.29,0,0,1-2.49,1.1,25.83,25.83,0,0,1-3.26.93,35,35,0,0,1-3.73.6,36.12,36.12,0,0,1-3.87.21,32.41,32.41,0,0,1-9.59-1.38A21.75,21.75,0,0,1,310.52,55a19.94,19.94,0,0,1-5.22-7,23.18,23.18,0,0,1-1.92-9.73,23,23,0,0,1,2.1-10.15A21.24,21.24,0,0,1,311,21a23.13,23.13,0,0,1,7.88-4.3A29.92,29.92,0,0,1,328,15.24q6.75,0,10.69,2.17c2.62,1.44,3.94,3.33,3.94,5.64a5.49,5.49,0,0,1-.93,3.2,7.44,7.44,0,0,1-2.13,2.13,28.55,28.55,0,0,0-4.43-2.09,16.49,16.49,0,0,0-6-1q-6,0-9.48,3.4c-2.35,2.28-3.52,5.42-3.52,9.45a15,15,0,0,0,1,5.64,10.33,10.33,0,0,0,6.36,6.18,13.81,13.81,0,0,0,4.54.74,12.18,12.18,0,0,0,2.77-.28,7.5,7.5,0,0,0,1.85-.64V43.08H325a10.85,10.85,0,0,1-.82-2.06,9.18,9.18,0,0,1-.39-2.7A5,5,0,0,1,325,34.63a4.15,4.15,0,0,1,3-1.14h12A4.07,4.07,0,0,1,344.49,38Z"/><path class="cls-1" d="M364,59.41l-2.31.39a19.92,19.92,0,0,1-3.09.25,16.75,16.75,0,0,1-2.8-.22,4.73,4.73,0,0,1-2.1-.85,4,4,0,0,1-1.31-1.74,7.46,7.46,0,0,1-.46-2.87V13.19l2.3-.4a19.91,19.91,0,0,1,3.09-.24,17,17,0,0,1,2.81.21,4.86,4.86,0,0,1,2.09.85,4.06,4.06,0,0,1,1.31,1.74,7.5,7.5,0,0,1,.47,2.88Z"/><path class="cls-1" d="M371.33,15.39a6.24,6.24,0,0,1,1.81-4.55,7.15,7.15,0,0,1,9.58,0,6.25,6.25,0,0,1,1.82,4.55,6.22,6.22,0,0,1-1.82,4.54,7.13,7.13,0,0,1-9.58,0A6.21,6.21,0,0,1,371.33,15.39Zm12.64,44-2.31.39a19.92,19.92,0,0,1-3.09.25,16.75,16.75,0,0,1-2.8-.22,4.73,4.73,0,0,1-2.1-.85,4.08,4.08,0,0,1-1.31-1.74,7.46,7.46,0,0,1-.46-2.87V25.47c.52-.1,1.29-.23,2.3-.39a18.76,18.76,0,0,1,3.09-.25,17,17,0,0,1,2.81.21,4.86,4.86,0,0,1,2.09.85,4.16,4.16,0,0,1,1.32,1.74,7.75,7.75,0,0,1,.46,2.88Z"/><path class="cls-1" d="M390.14,42.22a21.32,21.32,0,0,1,1.42-8.12,15.51,15.51,0,0,1,3.94-5.72A16.21,16.21,0,0,1,401.4,25a23.07,23.07,0,0,1,7.27-1.1,14.87,14.87,0,0,1,2.77.25,10.33,10.33,0,0,1,2.2.6V13.26a18.32,18.32,0,0,1,2.28-.47,20.92,20.92,0,0,1,3.19-.24,17,17,0,0,1,2.81.21,4.86,4.86,0,0,1,2.09.85,3.93,3.93,0,0,1,1.28,1.74,8.23,8.23,0,0,1,.42,2.88V51.88a6.07,6.07,0,0,1-3.12,5.33,21.43,21.43,0,0,1-5.32,2.37,27.79,27.79,0,0,1-15.8-.24,16.91,16.91,0,0,1-6.18-3.7,15.69,15.69,0,0,1-3.83-5.78A20.85,20.85,0,0,1,390.14,42.22Zm20.17-8.87a7.69,7.69,0,0,0-5.9,2.2q-2.06,2.21-2.05,6.67c0,2.94.63,5.15,1.91,6.64a6.91,6.91,0,0,0,5.54,2.24,6.51,6.51,0,0,0,2.31-.39,5.39,5.39,0,0,0,1.6-.89V34.2A6.51,6.51,0,0,0,410.31,33.35Z"/><path class="cls-1" d="M451.49,60.61a24.93,24.93,0,0,1-7.78-1.17,17.68,17.68,0,0,1-6.25-3.51,16.21,16.21,0,0,1-4.18-5.9,20.8,20.8,0,0,1-1.53-8.3,19.38,19.38,0,0,1,1.53-8.06A15.56,15.56,0,0,1,443,24.94a21,21,0,0,1,6.53-1A19.89,19.89,0,0,1,456.35,25a16.46,16.46,0,0,1,5.33,3.13,13.92,13.92,0,0,1,3.48,4.75,14.73,14.73,0,0,1,1.24,6,4.83,4.83,0,0,1-1.35,3.69,6.73,6.73,0,0,1-3.76,1.63l-17.54,2.63a5.88,5.88,0,0,0,3.19,3.51,12.43,12.43,0,0,0,5.54,1.18,19.65,19.65,0,0,0,5.5-.75,17.75,17.75,0,0,0,4.23-1.74,6.11,6.11,0,0,1,1.92,2,5.2,5.2,0,0,1-2.21,7.45,15.81,15.81,0,0,1-5.11,1.64A36.48,36.48,0,0,1,451.49,60.61Zm-2-27.9a7,7,0,0,0-2.95.57,5.92,5.92,0,0,0-2,1.45,6.18,6.18,0,0,0-1.17,2A8,8,0,0,0,442.9,39L455,37a5.41,5.41,0,0,0-1.56-2.84A5.23,5.23,0,0,0,449.5,32.71Z"/><path class="cls-1" d="M484.29,59.41a16.56,16.56,0,0,1-2.24.42,23.17,23.17,0,0,1-3.16.22,16.84,16.84,0,0,1-2.8-.22A4.73,4.73,0,0,1,474,59a4.16,4.16,0,0,1-1.31-1.74,7.46,7.46,0,0,1-.46-2.87V33.07a6.1,6.1,0,0,1,.6-2.81,6.46,6.46,0,0,1,1.74-2.09,12.42,12.42,0,0,1,2.81-1.67A28.33,28.33,0,0,1,481,25.18a31.18,31.18,0,0,1,4-.88,25.9,25.9,0,0,1,4.12-.32,9.7,9.7,0,0,1,5.39,1.31,4.77,4.77,0,0,1,2,4.3,7.18,7.18,0,0,1-.28,1.95,9.17,9.17,0,0,1-.71,1.74c-1,0-2,0-3.06.14s-2.06.24-3.05.43-1.93.39-2.8.6a11.48,11.48,0,0,0-2.24.75Z"/></svg>